<?xml version="1.0" standalone="no"?><!DOCTYPE svg PUBLIC "-//W3C//DTD SVG 1.1//EN" "http://www.w3.org/Graphics/SVG/1.1/DTD/svg11.dtd"><svg t="1720765007897" class="icon" viewBox="0 0 1024 1024" version="1.1" xmlns="http://www.w3.org/2000/svg" p-id="1871" xmlns:xlink="http://www.w3.org/1999/xlink" width="200" height="200"><path d="M512.20299 0.00002a511.98999 511.98999 0 0 1 493.62199 648.370987 31.999999 31.999999 0 0 1-61.694998-17.022999 447.990991 447.990991 0 1 0-312.377994 312.505994 31.999999 31.999999 0 0 1 17.023999 61.694998A511.98999 511.98999 0 1 1 512.20299 0.00002z m351.992993 703.985986a31.999999 31.999999 0 0 1 31.999999 32v95.997998h95.996999a31.999999 31.999999 0 1 1 0 63.998999h-96.061999l0.064 95.997998a31.999999 31.999999 0 1 1-63.998998 0l-0.064-95.997998h-95.933998a31.999999 31.999999 0 1 1 0-63.999999h95.997998v-95.996998a31.999999 31.999999 0 0 1 31.999999-32zM703.174986 556.790009l5.76 0.384a31.999999 31.999999 0 0 1 26.88 36.351999 226.235996 226.235996 0 0 1-447.223992 0.895 31.999999 31.999999 0 0 1 63.229999-9.726999 162.236997 162.236997 0 0 0 320.761994-0.64 31.999999 31.999999 0 0 1 30.591999-27.264z m-350.969993-227.194995a54.398999 54.398999 0 1 1 0 108.797997 54.398999 54.398999 0 0 1 0-108.797997z m319.993994 0a54.398999 54.398999 0 1 1 0 108.797997 54.398999 54.398999 0 0 1 0-108.797997z" p-id="1872" fill="#515151"></path></svg>